<svg width="54" height="54" viewBox="0 0 54 54" fill="none" xmlns="http://www.w3.org/2000/svg">
<path d="M51.4599 8.49047C49.1462 5.45259 45.5074 3.70604 40.3294 3.15057C39.9101 3.10798 39.4679 3.08153 39.0126 3.08153C34.4216 3.08153 29.8463 5.23516 26.9997 8.65711C24.1502 5.2349 19.5789 3.08127 14.9897 3.08127C14.5345 3.08127 14.0951 3.10693 13.6671 3.15031C8.49652 3.70604 4.85953 5.45259 2.54428 8.48942C0.249667 11.5006 -0.4981 15.5817 0.322407 20.6206C1.52169 27.9313 10.9871 36.8318 18.5915 43.9865L18.7658 44.1502C20.8835 46.1438 22.7133 47.8668 23.9052 49.1484C24.066 49.3293 25.5182 50.9185 27.1076 50.9185C28.7074 50.9185 30.1275 49.3044 30.2571 49.1492C31.5239 47.7766 33.5799 45.8293 35.6084 43.9114C43.1276 36.7776 52.4878 27.8991 53.6741 20.6174C54.4994 15.5825 53.7553 11.5035 51.4599 8.49047ZM51.7617 20.3053C50.6807 26.9439 41.5845 35.5735 34.2375 42.541C32.2259 44.4457 30.1442 46.4136 28.8076 47.8639C28.4754 48.2549 27.6377 48.982 27.1074 48.982C26.5934 48.982 25.7565 48.3136 25.3399 47.8481C24.0875 46.502 22.237 44.7583 20.0926 42.7401L19.9183 42.5753C12.526 35.6222 3.32643 26.9691 2.23216 20.3077C1.50238 15.8158 2.12424 12.2349 4.08478 9.66278C6.05749 7.07271 9.26095 5.57241 13.8674 5.07619C14.229 5.04022 14.6001 5.01747 14.9892 5.01747C19.4128 5.01747 23.8126 7.2904 26.1964 10.81L26.9992 11.9905L27.8009 10.81C30.1847 7.2904 34.5856 5.01747 39.0129 5.01747C39.4001 5.01747 39.7739 5.04022 40.1289 5.07619C44.7419 5.57135 47.9443 7.07165 49.9199 9.66357C51.8781 12.2372 52.4992 15.8174 51.7617 20.3053Z" fill="#00D4FF"/>
</svg>
